<?xml version="1.0" encoding="UTF-8" standalone="no"?>
<svg width="336px" height="56px" viewBox="0 0 336 56" version="1.1" xmlns="http://www.w3.org/2000/svg" xmlns:xlink="http://www.w3.org/1999/xlink" xmlns:sketch="http://www.bohemiancoding.com/sketch/ns">
    <!-- Generator: Sketch 3.4.4 (17249) - http://www.bohemiancoding.com/sketch -->
    <title>icon-sn</title>
    <desc>Created with Sketch.</desc>
    <defs></defs>
    <g id="share" stroke="none" stroke-width="1" fill="none" fill-rule="evenodd" sketch:type="MSPage">
        <g id="icon-sn" sketch:type="MSArtboardGroup">
            <g id="Blue-G" sketch:type="MSLayerGroup" transform="translate(5.000000, 5.000000)" fill="#FFFFFF">
                <path d="M8.81616595,8.15580286 L16.236439,8.15580286 L16.1629709,10.572337 L8.81616595,10.572337 L8.81616595,8.15580286 Z" id="Rectangle-1" sketch:type="MSShapeGroup"></path>
                <path d="M16.8561,8.15580286 C16.856346,8.18568341 16.8564691,8.21562472 16.8564691,8.24562643 C17.6717923,14.399352 13.594459,17.9427368 8.70596388,17.8974563 C3.89779743,17.8903697 0,13.8909742 0,8.94872814 C0,4.00648206 3.8977928,0 8.70596388,0 C11.2192182,0 13.331976,0.902550726 14.776248,2.46993686 L13.0782817,4.2152506 C12.0192092,3.10222354 10.5150104,2.49205087 8.77943193,2.49205087 C5.3102452,2.49205087 2.49791369,5.38280375 2.49791369,8.94872814 C2.49791369,12.5146525 5.3102452,15.4054054 8.77943193,15.4054054 C12.2486187,15.4054054 14.7116899,13.3438882 14.7065242,8.94872814 C14.7123917,8.67711012 14.7062381,8.41271349 14.6885905,8.15580286 L16.8561,8.15580286 Z" id="Oval-1" sketch:type="MSShapeGroup"></path>
            </g>
            <path d="M122.289916,22.6666667 C119.972713,22.6666667 117.815867,21.9701531 116,20.7763655 C116.321007,20.8152232 116.647646,20.8351022 116.978821,20.8351022 C118.901203,20.8351022 120.670471,20.1624433 122.074765,19.0339938 C120.279235,19.000012 118.76389,17.7835699 118.241779,16.1119373 C118.492264,16.1610721 118.749332,16.1874023 119.013717,16.1874023 C119.387981,16.1874023 119.750466,16.1360171 120.09481,16.0398479 C118.217638,15.653371 116.803321,13.9527826 116.803321,11.9141769 C116.803321,11.8964734 116.803321,11.8788449 116.803614,11.8612914 C117.356889,12.1764291 117.989539,12.3656918 118.662204,12.3875211 C117.561213,11.633021 116.836753,10.3451647 116.836753,8.8854492 C116.836753,8.11437076 117.039102,7.39160193 117.392297,6.77017827 C119.416072,9.31573483 122.439519,10.9908182 125.849738,11.1662781 C125.779802,10.8583418 125.743443,10.5372029 125.743443,10.2074373 C125.743443,7.88384989 127.580672,6 129.846812,6 C131.026958,6 132.093347,6.51100169 132.841874,7.32873942 C133.77651,7.14000186 134.654669,6.78983218 135.447456,6.30771123 C135.141081,7.29018175 134.490508,8.11474583 133.643293,8.63549946 C134.473317,8.53377922 135.264128,8.30760921 136,7.97296762 C135.44987,8.81673553 134.754161,9.557808 133.952522,10.1510261 C133.960423,10.331437 133.964373,10.5128981 133.964373,10.6953344 C133.964373,16.2553658 129.837229,22.6666667 122.289916,22.6666667" id="Fill-4" fill="#FFFFFF" sketch:type="MSShapeGroup"></path>
            <path d="M180.412863,5 C180.46888,5.51655629 180.487552,5.95364238 180.487552,6.68874172 C180.487552,11.4172185 179.460581,14.6953642 177.070539,17.6357616 C175.894191,19.0662252 174.904564,19.8807947 173,20.9536424 C173.672199,21.589404 174.026971,22.0860927 174.456432,23 C175.763485,22.1456954 176.379668,21.6688742 177.350622,20.7152318 C178.676349,19.4238411 179.479253,18.3509934 180.226141,16.9006623 C180.991701,15.3907285 181.327801,14.4768212 181.682573,12.8874172 C182.317427,15.1721854 183.026971,16.7019868 184.165975,18.3112583 C185.491701,20.1788079 186.630705,21.3112583 188.908714,23 C189.356846,22.0463576 189.655602,21.5695364 190.365145,20.794702 C189.13278,20.0993377 188.572614,19.6821192 187.470954,18.6490066 C186.145228,17.4172185 185.323651,16.3642384 184.520747,14.8741722 C183.176349,12.3311258 182.690871,10.2251656 182.690871,6.84768212 C182.690871,6.37086093 182.76556,5.25827815 182.821577,5 L180.412863,5 Z" id="人-2" fill="#FFFFFF" sketch:type="MSShapeGroup"></path>
            <path d="M230.242145,6 L245.117997,6 L245.117997,7.74030769 L230.242145,7.74030769 L230.242145,6 Z M231.535182,16.3575385 L243.824368,16.3575385 L243.824368,9.55507692 L231.535182,9.55507692 L231.535182,16.3575385 Z M233.317108,11.2941538 L242.060219,11.2941538 L242.060219,14.6196923 L233.317108,14.6196923 L233.317108,11.2941538 Z M241.165997,20.2787692 C241.701108,19.4283077 242.205405,18.4424615 242.67296,17.3236923 L240.885108,16.6473846 C240.419923,17.9729231 239.878886,19.1858462 239.26259,20.2787692 L236.151479,20.2787692 C235.635923,18.8621538 235.053997,17.6504615 234.401553,16.6473846 L232.757108,17.3236923 C233.435034,18.3803077 233.981997,19.3636923 234.401553,20.2787692 L229.821405,20.2787692 L229.821405,22 L245.538738,22 L245.538738,20.2787692 L241.165997,20.2787692 Z" id="Fill-6" fill="#FFFFFF" sketch:type="MSShapeGroup"></path>
            <path d="M51,14.2268176 C51,9.13284536 46.96875,5 42,5 C37.03125,5 33,9.13284536 33,14.2268176 C33,18.2995925 35.578125,21.7596491 39.1523438,22.9850858 C39.609375,23.0691844 39.7734375,22.7808463 39.7734375,22.5405646 C39.7734375,22.3243111 39.7617188,21.5914519 39.7617188,20.8225504 C39.7617188,20.8225504 37.2539062,21.3751983 36.7265625,19.7292686 C36.7265625,19.7292686 36.3164062,18.6600151 35.7304688,18.3836911 C35.7304688,18.3836911 34.9101562,17.807015 35.7890625,17.8190291 C35.7890625,17.8190291 36.6796875,17.8911136 37.171875,18.7681418 C37.9570312,20.1858039 39.2695312,19.777325 39.7851562,19.5370433 C39.8671875,18.936339 40.1015625,18.5398742 40.359375,18.2995925 C38.3554688,18.0713249 36.2578125,17.2783952 36.2578125,13.7462541 C36.2578125,12.737071 36.609375,11.9080991 37.1835938,11.2713526 C37.0898438,11.0310708 36.7851562,10.0939722 37.265625,8.82047914 C38.0273438,8.58019744 39.75,9.76959189 39.75,9.76959189 C40.4648438,9.56535244 41.2382812,9.45722567 42,9.45722567 C42.7617188,9.45722567 43.5351562,9.56535244 44.25,9.76959189 C44.25,9.76959189 45.9726562,8.58019744 46.7226562,8.82047914 C47.2148438,10.0939722 46.9101562,11.0310708 46.8164062,11.2713526 C47.390625,11.9080991 47.7421875,12.737071 47.7421875,13.7462541 C47.7421875,17.2904093 45.6328125,18.0713249 43.6289062,18.2995925 C43.9570312,18.5879305 44.2382812,19.1405785 44.2382812,20.0055926 L44.2382812,22.5405646 C44.2382812,22.7808463 44.390625,23.0691844 44.8476562,22.9850858 C48.421875,21.7596491 51,18.2995925 51,14.2268176 L51,14.2268176 Z" id="github---FontAwesome" fill="#FFFFFF" sketch:type="MSShapeGroup"></path>
            <path d="M67.5334911,18.4269611 C67.20983,18.9403546 66.5178649,19.1635692 66.0044714,18.9291939 C65.5022387,18.6948186 65.3459885,18.1033 65.6696496,17.6010673 C65.98215,17.1099953 66.6517936,16.8867807 67.1540264,17.0988346 C67.6785806,17.3220491 67.8459915,17.9135677 67.5334911,18.4269611 L67.5334911,18.4269611 Z M68.5825995,17.0765131 C68.4709922,17.2774062 68.2142955,17.366692 68.0134024,17.2885669 C67.8125093,17.1992811 67.7567057,16.9872273 67.868313,16.7863342 C67.9799202,16.5966018 68.2254562,16.507316 68.4263493,16.5742804 C68.6272424,16.6524055 68.6942068,16.87562 68.5825995,17.0765131 L68.5825995,17.0765131 Z M70.5245661,18.270711 C71.1942098,16.7751735 70.3683159,15.2349931 68.727689,14.8108854 C67.1540264,14.4090992 65.3794707,15.1903501 64.6875056,16.5742804 C63.9955405,17.9916928 64.6651841,19.5653554 66.2611682,20.0787488 C67.9129559,20.6144638 69.8549225,19.7885699 70.5245661,18.270711 L70.5245661,18.270711 Z M74.0067131,16.4849945 C74.218767,18.6613364 71.718764,20.6814281 68.4040279,21.0162499 C65.0892918,21.339911 62.2321455,19.8443736 62.0200917,17.6680317 C61.8080379,15.4916898 64.3080408,13.4715981 67.6227769,13.1367763 C70.937513,12.8131152 73.7946593,14.3086527 74.0067131,16.4849945 L74.0067131,16.4849945 Z M77.4442172,16.5296375 C77.4442172,15.0117785 76.1718943,14.1524025 75.0223393,13.7952592 C74.7433211,13.7059734 74.5535888,13.6501697 74.6986782,13.2818657 C75.0111786,12.4782933 75.0446608,11.7863282 74.6986782,11.2952562 C74.051356,10.3689158 72.2768003,10.4135587 70.2455479,11.2729348 C70.2455479,11.261774 69.6093865,11.551953 69.7656366,11.0385595 C70.078137,10.034094 70.0334941,9.1858787 69.5424221,8.70596742 C68.4375101,7.60105538 65.5022387,8.7394496 62.9799143,11.261774 C61.0937513,13.147937 60,15.1457072 60,16.87562 C60,20.1903561 64.2410765,22.1992871 68.3928671,22.1992871 C73.8281415,22.1992871 77.4442172,19.0408012 77.4442172,16.5296375 L77.4442172,16.5296375 Z M76.6183234,9.56534344 C75.9821619,8.85105687 75.0335001,8.58319941 74.1629633,8.77293178 C73.80582,8.85105687 73.5826055,9.19703943 73.6607306,9.55418271 C73.7276949,9.911326 74.0848382,10.1345405 74.4419815,10.0564155 C74.8660892,9.96712963 75.323679,10.1010584 75.6361794,10.4470409 C75.9486797,10.7930235 76.0379655,11.261774 75.9040368,11.6858817 C75.7924295,12.0318642 75.9821619,12.4001682 76.3281445,12.5117755 C76.674127,12.6233828 77.042431,12.4336504 77.1540383,12.0876679 C77.4330565,11.2394526 77.2544849,10.2684693 76.6183234,9.56534344 L76.6183234,9.56534344 Z M78.6384151,7.74614484 C77.3214492,6.28408953 75.3906433,5.73721388 73.5937662,6.11667861 C73.1808193,6.20596444 72.9129618,6.60775063 73.0022476,7.02069755 C73.0915335,7.43364447 73.5044804,7.70150193 73.9174273,7.61221611 C75.1897503,7.34435865 76.5625197,7.73498412 77.5000209,8.77293178 C78.437522,9.79971872 78.683058,11.2171311 78.2812718,12.4559719 C78.1585038,12.8577581 78.3817183,13.2818657 78.7835045,13.4157945 C79.1852907,13.5497232 79.6093984,13.3265086 79.7433271,12.9247224 C80.3013635,11.1836489 79.9553809,9.19703943 78.6384151,7.74614484 L78.6384151,7.74614484 Z" id="weibo---FontAwesome" fill="#FFFFFF" sketch:type="MSShapeGroup"></path>
            <path d="M91.53125,13.0959821 C89.9642857,14.28125 89,15.7678571 89,17.7767857 C89,18.1484375 89.0904018,18.4497768 89.2310268,18.78125 C89.2912946,18.8013393 89.2611607,18.8816964 89.3415179,18.8816964 L89.3515625,18.8816964 C89.9341518,18.8214286 90.4564732,18.2689732 90.6774554,17.7566964 C90.6975446,17.7064732 90.7276786,17.5558036 90.7979911,17.5558036 L90.8482143,17.5859375 C90.9988839,18.3091518 91.9732143,20.0569196 92.6662946,20.2176339 L92.6863839,20.2477679 C92.6863839,20.2779018 92.6763393,20.2779018 92.6662946,20.2879464 C92.6160714,20.2979911 92.5758929,20.3080357 92.5256696,20.3080357 C92.1640625,20.328125 91.9330357,20.4988839 91.6216518,20.5591518 C91.2299107,20.9207589 91.109375,21.0814732 91.109375,21.6439732 C91.109375,22.9497768 94.0625,23 94.8258929,23 C95.6897321,23 97.1863839,22.8191964 97.7991071,22.1462054 C98.0602679,22.1763393 98.421875,22.1361607 98.6629464,22.2064732 C99.8180804,22.5479911 100.8125,22.8694196 102.037946,22.8694196 C102.962054,22.8694196 104.498884,22.7589286 105.071429,21.8950893 C105.151786,21.7845982 105.131696,21.6640625 105.18192,21.5535714 C105.011161,20.5993304 104.087054,20.6495536 103.514509,20.0970982 C104.167411,19.4743304 104.518973,18.6908482 104.840402,17.8571429 L104.890625,17.8169643 C104.90067,17.8169643 104.910714,17.8169643 104.920759,17.8270089 C105.061384,18.0881696 105.493304,19.0424107 105.885045,19.0424107 C106.447545,19.0424107 106.638393,17.8169643 106.638393,17.4654018 C106.638393,15.8783482 105.854911,14.4921875 104.991071,13.2165179 C104.981027,13.1964286 104.920759,13.1160714 104.920759,13.0959821 C104.920759,12.8549107 105.101562,12.5837054 105.101562,12.3125 C105.101562,11.7700893 104.840402,11.2477679 104.549107,10.8058036 L104.539062,10.7555804 C104.03683,8.39508929 103.504464,6.546875 101.143973,5.55245536 C100.320312,5.2109375 99.3560268,5 98.4720982,5 C97.3370536,5 96.2522321,5.17075893 95.2176339,5.66294643 C93.5401786,6.46651786 92.1037946,8.80691964 92.1037946,10.6651786 C91.9029018,10.8359375 91.7924107,11.3683036 91.8024554,11.6294643 C91.6316964,11.8404018 91.4508929,12.2924107 91.4508929,12.5736607 C91.4508929,12.7544643 91.4609375,12.9252232 91.53125,13.0959821 L91.53125,13.0959821 Z" id="qq---FontAwesome" fill="#FFFFFF" sketch:type="MSShapeGroup"></path>
            <path d="M159.384615,4.14423077 C159.060096,4.09615385 157.942308,4 156.644231,4 C153.927885,4 152.064904,5.65865385 152.064904,8.69951923 L152.064904,11.3197115 L149,11.3197115 L149,14.8774038 L152.064904,14.8774038 L152.064904,24 L155.742788,24 L155.742788,14.8774038 L158.795673,14.8774038 L159.264423,11.3197115 L155.742788,11.3197115 L155.742788,9.04807692 C155.742788,8.02644231 156.019231,7.31730769 157.497596,7.31730769 L159.384615,7.31730769 L159.384615,4.14423077 Z" id="facebook---FontAwesome" fill="#FFFFFF" sketch:type="MSShapeGroup"></path>
            <path d="M212.761171,10.3839362 C212.761171,9.18973833 211.790188,8.22991576 210.607151,8.22991576 C209.412953,8.22991576 208.45313,9.18973833 208.45313,10.3839362 C208.45313,10.6852758 208.508934,10.9754547 208.631702,11.2433122 C208.162951,11.7343842 207.660719,12.3370635 207.158486,13.0848323 C205.785716,15.1272454 204.234375,18.587071 204.669644,23.4754696 C204.703126,23.7768093 204.959823,24.0000238 205.250001,24.0000238 L205.305805,24.0000238 C205.618306,23.9665417 205.852681,23.6875235 205.830359,23.3638624 C205.495537,19.7366259 206.265628,16.5111756 208.084826,13.7767974 C208.520095,13.1294752 208.966524,12.5825995 209.36831,12.1473311 C209.725453,12.3928671 210.149561,12.5379566 210.607151,12.5379566 C211.790188,12.5379566 212.761171,11.5669733 212.761171,10.3839362 L212.761171,10.3839362 Z M217.013408,10.5067042 C217.013408,6.9129499 214.100458,4 210.506704,4 C206.924111,4 204,6.9129499 204,10.5067042 C204,11.5334911 204.245536,12.5602781 204.714287,13.464297 C204.859376,13.7544759 205.205359,13.8660832 205.495537,13.7209937 C205.774556,13.5759043 205.886163,13.2299217 205.741074,12.9397428 C205.361609,12.1808133 205.160716,11.3660802 205.160716,10.5067042 C205.160716,7.5602721 207.560272,5.16071567 210.506704,5.16071567 C213.453136,5.16071567 215.852693,7.5602721 215.852693,10.5067042 C215.852693,13.4531363 213.453136,15.8526927 210.506704,15.8526927 C210.104918,15.8526927 209.691971,15.8080498 209.301346,15.7076032 C208.988845,15.6406389 208.687506,15.841532 208.60938,16.1428716 C208.542416,16.455372 208.732148,16.7678724 209.044649,16.8459975 C209.52456,16.946444 210.015632,17.0022476 210.506704,17.0022476 C214.100458,17.0022476 217.013408,14.0892977 217.013408,10.5067042 L217.013408,10.5067042 Z" id="tencent-weibo---FontAwesome" fill="#FFFFFF" sketch:type="MSShapeGroup"></path>
            <path d="M260.880022,9.3057554 C260.880022,9.88848921 260.493303,10.2769784 259.902483,10.2769784 C259.322404,10.2769784 258.731584,9.88848921 258.731584,9.3057554 C258.731584,8.71223022 259.322404,8.32374101 259.902483,8.32374101 C260.493303,8.32374101 260.880022,8.71223022 260.880022,9.3057554 L260.880022,9.3057554 Z M268.861467,14.7769784 C268.861467,15.176259 268.474748,15.5647482 267.883928,15.5647482 C267.497209,15.5647482 267.11049,15.176259 267.11049,14.7769784 C267.11049,14.3884892 267.497209,14 267.883928,14 C268.474748,14 268.861467,14.3884892 268.861467,14.7769784 L268.861467,14.7769784 Z M266.326311,9.3057554 C266.326311,9.88848921 265.939592,10.2769784 265.359514,10.2769784 C264.768693,10.2769784 264.188615,9.88848921 264.188615,9.3057554 C264.188615,8.71223022 264.768693,8.32374101 265.359514,8.32374101 C265.939592,8.32374101 266.326311,8.71223022 266.326311,9.3057554 L266.326311,9.3057554 Z M273.1476,14.7769784 C273.1476,15.176259 272.750139,15.5647482 272.170061,15.5647482 C271.783342,15.5647482 271.396623,15.176259 271.396623,14.7769784 C271.396623,14.3884892 271.783342,14 272.170061,14 C272.750139,14 273.1476,14.3884892 273.1476,14.7769784 L273.1476,14.7769784 Z M270.290178,10.4928058 C269.624162,7.34172662 266.261858,5 262.437639,5 C258.151506,5 254.649553,7.92446043 254.649553,11.647482 C254.649553,13.794964 255.820451,15.5647482 257.764787,16.9352518 L256.99135,19.2877698 L259.709123,17.9172662 C260.686662,18.1115108 261.4601,18.3057554 262.437639,18.3057554 C262.684709,18.3057554 262.921037,18.294964 263.168108,18.2733813 C263.006975,17.7553957 262.921037,17.205036 262.921037,16.6330935 C262.921037,13.2230216 265.842912,10.4496403 269.538225,10.4496403 C269.796037,10.4496403 270.043108,10.4604317 270.290178,10.4928058 L270.290178,10.4928058 Z M276.649553,16.5467626 C276.649553,13.4172662 273.534318,10.8705036 270.032365,10.8705036 C266.326311,10.8705036 263.415178,13.4172662 263.415178,16.5467626 C263.415178,19.676259 266.326311,22.2230216 270.032365,22.2230216 C270.805803,22.2230216 271.589983,22.0179856 272.374162,21.823741 L274.511858,23 L273.921037,21.0467626 C275.489397,19.8705036 276.649553,18.3057554 276.649553,16.5467626 L276.649553,16.5467626 Z" id="weixin---FontAwesome" fill="#FFFFFF" sketch:type="MSShapeGroup"></path>
            <path d="M288,16 C289.104569,16 290,15.1045695 290,14 C290,12.8954305 289.104569,12 288,12 C286.895431,12 286,12.8954305 286,14 C286,15.1045695 286.895431,16 288,16 Z M294,16 C295.104569,16 296,15.1045695 296,14 C296,12.8954305 295.104569,12 294,12 C292.895431,12 292,12.8954305 292,14 C292,15.1045695 292.895431,16 294,16 Z M300,16 C301.104569,16 302,15.1045695 302,14 C302,12.8954305 301.104569,12 300,12 C298.895431,12 298,12.8954305 298,14 C298,15.1045695 298.895431,16 300,16 Z" id="Oval-2" fill="#888888" sketch:type="MSShapeGroup"></path>
            <g id="Blue-G" sketch:type="MSLayerGroup" transform="translate(5.000000, 33.000000)" fill="#3182F6">
                <path d="M8.81616595,8.15580286 L16.236439,8.15580286 L16.1629709,10.572337 L8.81616595,10.572337 L8.81616595,8.15580286 Z" id="Rectangle-1" sketch:type="MSShapeGroup"></path>
                <path d="M16.8561,8.15580286 C16.856346,8.18568341 16.8564691,8.21562472 16.8564691,8.24562643 C17.6717923,14.399352 13.594459,17.9427368 8.70596388,17.8974563 C3.89779743,17.8903697 0,13.8909742 0,8.94872814 C0,4.00648206 3.8977928,0 8.70596388,0 C11.2192182,0 13.331976,0.902550726 14.776248,2.46993686 L13.0782817,4.2152506 C12.0192092,3.10222354 10.5150104,2.49205087 8.77943193,2.49205087 C5.3102452,2.49205087 2.49791369,5.38280375 2.49791369,8.94872814 C2.49791369,12.5146525 5.3102452,15.4054054 8.77943193,15.4054054 C12.2486187,15.4054054 14.7116899,13.3438882 14.7065242,8.94872814 C14.7123917,8.67711012 14.7062381,8.41271349 14.6885905,8.15580286 L16.8561,8.15580286 Z" id="Oval-1" sketch:type="MSShapeGroup"></path>
            </g>
            <path d="M288,44 C289.104569,44 290,43.1045695 290,42 C290,40.8954305 289.104569,40 288,40 C286.895431,40 286,40.8954305 286,42 C286,43.1045695 286.895431,44 288,44 Z M294,44 C295.104569,44 296,43.1045695 296,42 C296,40.8954305 295.104569,40 294,40 C292.895431,40 292,40.8954305 292,42 C292,43.1045695 292.895431,44 294,44 Z M300,44 C301.104569,44 302,43.1045695 302,42 C302,40.8954305 301.104569,40 300,40 C298.895431,40 298,40.8954305 298,42 C298,43.1045695 298.895431,44 300,44 Z" id="Oval-2" fill="#888888" sketch:type="MSShapeGroup"></path>
            <path d="M122.289916,50.6666667 C119.972713,50.6666667 117.815867,49.9701531 116,48.7763655 C116.321007,48.8152232 116.647646,48.8351022 116.978821,48.8351022 C118.901203,48.8351022 120.670471,48.1624433 122.074765,47.0339938 C120.279235,47.000012 118.76389,45.7835699 118.241779,44.1119373 C118.492264,44.1610721 118.749332,44.1874023 119.013717,44.1874023 C119.387981,44.1874023 119.750466,44.1360171 120.09481,44.0398479 C118.217638,43.653371 116.803321,41.9527826 116.803321,39.9141769 C116.803321,39.8964734 116.803321,39.8788449 116.803614,39.8612914 C117.356889,40.1764291 117.989539,40.3656918 118.662204,40.3875211 C117.561213,39.633021 116.836753,38.3451647 116.836753,36.8854492 C116.836753,36.1143708 117.039102,35.3916019 117.392297,34.7701783 C119.416072,37.3157348 122.439519,38.9908182 125.849738,39.1662781 C125.779802,38.8583418 125.743443,38.5372029 125.743443,38.2074373 C125.743443,35.8838499 127.580672,34 129.846812,34 C131.026958,34 132.093347,34.5110017 132.841874,35.3287394 C133.77651,35.1400019 134.654669,34.7898322 135.447456,34.3077112 C135.141081,35.2901817 134.490508,36.1147458 133.643293,36.6354995 C134.473317,36.5337792 135.264128,36.3076092 136,35.9729676 C135.44987,36.8167355 134.754161,37.557808 133.952522,38.1510261 C133.960423,38.331437 133.964373,38.5128981 133.964373,38.6953344 C133.964373,44.2553658 129.837229,50.6666667 122.289916,50.6666667" id="Fill-4" fill="#4BAAF4" sketch:type="MSShapeGroup"></path>
            <path d="M180.412863,33 C180.46888,33.5165563 180.487552,33.9536424 180.487552,34.6887417 C180.487552,39.4172185 179.460581,42.6953642 177.070539,45.6357616 C175.894191,47.0662252 174.904564,47.8807947 173,48.9536424 C173.672199,49.589404 174.026971,50.0860927 174.456432,51 C175.763485,50.1456954 176.379668,49.6688742 177.350622,48.7152318 C178.676349,47.4238411 179.479253,46.3509934 180.226141,44.9006623 C180.991701,43.3907285 181.327801,42.4768212 181.682573,40.8874172 C182.317427,43.1721854 183.026971,44.7019868 184.165975,46.3112583 C185.491701,48.1788079 186.630705,49.3112583 188.908714,51 C189.356846,50.0463576 189.655602,49.5695364 190.365145,48.794702 C189.13278,48.0993377 188.572614,47.6821192 187.470954,46.6490066 C186.145228,45.4172185 185.323651,44.3642384 184.520747,42.8741722 C183.176349,40.3311258 182.690871,38.2251656 182.690871,34.8476821 C182.690871,34.3708609 182.76556,33.2582781 182.821577,33 L180.412863,33 Z" id="人-2" fill="#0B79CB" sketch:type="MSShapeGroup"></path>
            <path d="M230.592593,34 L245.468444,34 L245.468444,35.7403077 L230.592593,35.7403077 L230.592593,34 Z M231.88563,44.3575385 L244.174815,44.3575385 L244.174815,37.5550769 L231.88563,37.5550769 L231.88563,44.3575385 Z M233.667556,39.2941538 L242.410667,39.2941538 L242.410667,42.6196923 L233.667556,42.6196923 L233.667556,39.2941538 Z M241.516444,48.2787692 C242.051556,47.4283077 242.555852,46.4424615 243.023407,45.3236923 L241.235556,44.6473846 C240.77037,45.9729231 240.229333,47.1858462 239.613037,48.2787692 L236.501926,48.2787692 C235.98637,46.8621538 235.404444,45.6504615 234.752,44.6473846 L233.107556,45.3236923 C233.785481,46.3803077 234.332444,47.3636923 234.752,48.2787692 L230.171852,48.2787692 L230.171852,50 L245.889185,50 L245.889185,48.2787692 L241.516444,48.2787692 Z" id="Fill-6" fill="#1F9832" sketch:type="MSShapeGroup"></path>
            <path d="M51,42.2268176 C51,37.1328454 46.96875,33 42,33 C37.03125,33 33,37.1328454 33,42.2268176 C33,46.2995925 35.578125,49.7596491 39.1523438,50.9850858 C39.609375,51.0691844 39.7734375,50.7808463 39.7734375,50.5405646 C39.7734375,50.3243111 39.7617188,49.5914519 39.7617188,48.8225504 C39.7617188,48.8225504 37.2539062,49.3751983 36.7265625,47.7292686 C36.7265625,47.7292686 36.3164062,46.6600151 35.7304688,46.3836911 C35.7304688,46.3836911 34.9101562,45.807015 35.7890625,45.8190291 C35.7890625,45.8190291 36.6796875,45.8911136 37.171875,46.7681418 C37.9570312,48.1858039 39.2695312,47.777325 39.7851562,47.5370433 C39.8671875,46.936339 40.1015625,46.5398742 40.359375,46.2995925 C38.3554688,46.0713249 36.2578125,45.2783952 36.2578125,41.7462541 C36.2578125,40.737071 36.609375,39.9080991 37.1835938,39.2713526 C37.0898438,39.0310708 36.7851562,38.0939722 37.265625,36.8204791 C38.0273438,36.5801974 39.75,37.7695919 39.75,37.7695919 C40.4648438,37.5653524 41.2382812,37.4572257 42,37.4572257 C42.7617188,37.4572257 43.5351562,37.5653524 44.25,37.7695919 C44.25,37.7695919 45.9726562,36.5801974 46.7226562,36.8204791 C47.2148438,38.0939722 46.9101562,39.0310708 46.8164062,39.2713526 C47.390625,39.9080991 47.7421875,40.737071 47.7421875,41.7462541 C47.7421875,45.2904093 45.6328125,46.0713249 43.6289062,46.2995925 C43.9570312,46.5879305 44.2382812,47.1405785 44.2382812,48.0055926 L44.2382812,50.5405646 C44.2382812,50.7808463 44.390625,51.0691844 44.8476562,50.9850858 C48.421875,49.7596491 51,46.2995925 51,42.2268176 L51,42.2268176 Z" id="github---FontAwesome" fill="#333333" sketch:type="MSShapeGroup"></path>
            <path d="M67.5334911,46.4269611 C67.20983,46.9403546 66.5178649,47.1635692 66.0044714,46.9291939 C65.5022387,46.6948186 65.3459885,46.1033 65.6696496,45.6010673 C65.98215,45.1099953 66.6517936,44.8867807 67.1540264,45.0988346 C67.6785806,45.3220491 67.8459915,45.9135677 67.5334911,46.4269611 L67.5334911,46.4269611 Z M68.5825995,45.0765131 C68.4709922,45.2774062 68.2142955,45.366692 68.0134024,45.2885669 C67.8125093,45.1992811 67.7567057,44.9872273 67.868313,44.7863342 C67.9799202,44.5966018 68.2254562,44.507316 68.4263493,44.5742804 C68.6272424,44.6524055 68.6942068,44.87562 68.5825995,45.0765131 L68.5825995,45.0765131 Z M70.5245661,46.270711 C71.1942098,44.7751735 70.3683159,43.2349931 68.727689,42.8108854 C67.1540264,42.4090992 65.3794707,43.1903501 64.6875056,44.5742804 C63.9955405,45.9916928 64.6651841,47.5653554 66.2611682,48.0787488 C67.9129559,48.6144638 69.8549225,47.7885699 70.5245661,46.270711 L70.5245661,46.270711 Z M74.0067131,44.4849945 C74.218767,46.6613364 71.718764,48.6814281 68.4040279,49.0162499 C65.0892918,49.339911 62.2321455,47.8443736 62.0200917,45.6680317 C61.8080379,43.4916898 64.3080408,41.4715981 67.6227769,41.1367763 C70.937513,40.8131152 73.7946593,42.3086527 74.0067131,44.4849945 L74.0067131,44.4849945 Z M77.4442172,44.5296375 C77.4442172,43.0117785 76.1718943,42.1524025 75.0223393,41.7952592 C74.7433211,41.7059734 74.5535888,41.6501697 74.6986782,41.2818657 C75.0111786,40.4782933 75.0446608,39.7863282 74.6986782,39.2952562 C74.051356,38.3689158 72.2768003,38.4135587 70.2455479,39.2729348 C70.2455479,39.261774 69.6093865,39.551953 69.7656366,39.0385595 C70.078137,38.034094 70.0334941,37.1858787 69.5424221,36.7059674 C68.4375101,35.6010554 65.5022387,36.7394496 62.9799143,39.261774 C61.0937513,41.147937 60,43.1457072 60,44.87562 C60,48.1903561 64.2410765,50.1992871 68.3928671,50.1992871 C73.8281415,50.1992871 77.4442172,47.0408012 77.4442172,44.5296375 L77.4442172,44.5296375 Z M76.6183234,37.5653434 C75.9821619,36.8510569 75.0335001,36.5831994 74.1629633,36.7729318 C73.80582,36.8510569 73.5826055,37.1970394 73.6607306,37.5541827 C73.7276949,37.911326 74.0848382,38.1345405 74.4419815,38.0564155 C74.8660892,37.9671296 75.323679,38.1010584 75.6361794,38.4470409 C75.9486797,38.7930235 76.0379655,39.261774 75.9040368,39.6858817 C75.7924295,40.0318642 75.9821619,40.4001682 76.3281445,40.5117755 C76.674127,40.6233828 77.042431,40.4336504 77.1540383,40.0876679 C77.4330565,39.2394526 77.2544849,38.2684693 76.6183234,37.5653434 L76.6183234,37.5653434 Z M78.6384151,35.7461448 C77.3214492,34.2840895 75.3906433,33.7372139 73.5937662,34.1166786 C73.1808193,34.2059644 72.9129618,34.6077506 73.0022476,35.0206975 C73.0915335,35.4336445 73.5044804,35.7015019 73.9174273,35.6122161 C75.1897503,35.3443586 76.5625197,35.7349841 77.5000209,36.7729318 C78.437522,37.7997187 78.683058,39.2171311 78.2812718,40.4559719 C78.1585038,40.8577581 78.3817183,41.2818657 78.7835045,41.4157945 C79.1852907,41.5497232 79.6093984,41.3265086 79.7433271,40.9247224 C80.3013635,39.1836489 79.9553809,37.1970394 78.6384151,35.7461448 L78.6384151,35.7461448 Z" id="weibo---FontAwesome" fill="#EC0117" sketch:type="MSShapeGroup"></path>
            <path d="M91.53125,41.0959821 C89.9642857,42.28125 89,43.7678571 89,45.7767857 C89,46.1484375 89.0904018,46.4497768 89.2310268,46.78125 C89.2912946,46.8013393 89.2611607,46.8816964 89.3415179,46.8816964 L89.3515625,46.8816964 C89.9341518,46.8214286 90.4564732,46.2689732 90.6774554,45.7566964 C90.6975446,45.7064732 90.7276786,45.5558036 90.7979911,45.5558036 L90.8482143,45.5859375 C90.9988839,46.3091518 91.9732143,48.0569196 92.6662946,48.2176339 L92.6863839,48.2477679 C92.6863839,48.2779018 92.6763393,48.2779018 92.6662946,48.2879464 C92.6160714,48.2979911 92.5758929,48.3080357 92.5256696,48.3080357 C92.1640625,48.328125 91.9330357,48.4988839 91.6216518,48.5591518 C91.2299107,48.9207589 91.109375,49.0814732 91.109375,49.6439732 C91.109375,50.9497768 94.0625,51 94.8258929,51 C95.6897321,51 97.1863839,50.8191964 97.7991071,50.1462054 C98.0602679,50.1763393 98.421875,50.1361607 98.6629464,50.2064732 C99.8180804,50.5479911 100.8125,50.8694196 102.037946,50.8694196 C102.962054,50.8694196 104.498884,50.7589286 105.071429,49.8950893 C105.151786,49.7845982 105.131696,49.6640625 105.18192,49.5535714 C105.011161,48.5993304 104.087054,48.6495536 103.514509,48.0970982 C104.167411,47.4743304 104.518973,46.6908482 104.840402,45.8571429 L104.890625,45.8169643 C104.90067,45.8169643 104.910714,45.8169643 104.920759,45.8270089 C105.061384,46.0881696 105.493304,47.0424107 105.885045,47.0424107 C106.447545,47.0424107 106.638393,45.8169643 106.638393,45.4654018 C106.638393,43.8783482 105.854911,42.4921875 104.991071,41.2165179 C104.981027,41.1964286 104.920759,41.1160714 104.920759,41.0959821 C104.920759,40.8549107 105.101562,40.5837054 105.101562,40.3125 C105.101562,39.7700893 104.840402,39.2477679 104.549107,38.8058036 L104.539062,38.7555804 C104.03683,36.3950893 103.504464,34.546875 101.143973,33.5524554 C100.320312,33.2109375 99.3560268,33 98.4720982,33 C97.3370536,33 96.2522321,33.1707589 95.2176339,33.6629464 C93.5401786,34.4665179 92.1037946,36.8069196 92.1037946,38.6651786 C91.9029018,38.8359375 91.7924107,39.3683036 91.8024554,39.6294643 C91.6316964,39.8404018 91.4508929,40.2924107 91.4508929,40.5736607 C91.4508929,40.7544643 91.4609375,40.9252232 91.53125,41.0959821 L91.53125,41.0959821 Z" id="qq---FontAwesome" fill="#0098E6" sketch:type="MSShapeGroup"></path>
            <path d="M159.384615,32.1442308 C159.060096,32.0961538 157.942308,32 156.644231,32 C153.927885,32 152.064904,33.6586538 152.064904,36.6995192 L152.064904,39.3197115 L149,39.3197115 L149,42.8774038 L152.064904,42.8774038 L152.064904,52 L155.742788,52 L155.742788,42.8774038 L158.795673,42.8774038 L159.264423,39.3197115 L155.742788,39.3197115 L155.742788,37.0480769 C155.742788,36.0264423 156.019231,35.3173077 157.497596,35.3173077 L159.384615,35.3173077 L159.384615,32.1442308 Z" id="facebook---FontAwesome" fill="#4862A3" sketch:type="MSShapeGroup"></path>
            <path d="M212.761171,38.3839362 C212.761171,37.1897383 211.790188,36.2299158 210.607151,36.2299158 C209.412953,36.2299158 208.45313,37.1897383 208.45313,38.3839362 C208.45313,38.6852758 208.508934,38.9754547 208.631702,39.2433122 C208.162951,39.7343842 207.660719,40.3370635 207.158486,41.0848323 C205.785716,43.1272454 204.234375,46.587071 204.669644,51.4754696 C204.703126,51.7768093 204.959823,52.0000238 205.250001,52.0000238 L205.305805,52.0000238 C205.618306,51.9665417 205.852681,51.6875235 205.830359,51.3638624 C205.495537,47.7366259 206.265628,44.5111756 208.084826,41.7767974 C208.520095,41.1294752 208.966524,40.5825995 209.36831,40.1473311 C209.725453,40.3928671 210.149561,40.5379566 210.607151,40.5379566 C211.790188,40.5379566 212.761171,39.5669733 212.761171,38.3839362 L212.761171,38.3839362 Z M217.013408,38.5067042 C217.013408,34.9129499 214.100458,32 210.506704,32 C206.924111,32 204,34.9129499 204,38.5067042 C204,39.5334911 204.245536,40.5602781 204.714287,41.464297 C204.859376,41.7544759 205.205359,41.8660832 205.495537,41.7209937 C205.774556,41.5759043 205.886163,41.2299217 205.741074,40.9397428 C205.361609,40.1808133 205.160716,39.3660802 205.160716,38.5067042 C205.160716,35.5602721 207.560272,33.1607157 210.506704,33.1607157 C213.453136,33.1607157 215.852693,35.5602721 215.852693,38.5067042 C215.852693,41.4531363 213.453136,43.8526927 210.506704,43.8526927 C210.104918,43.8526927 209.691971,43.8080498 209.301346,43.7076032 C208.988845,43.6406389 208.687506,43.841532 208.60938,44.1428716 C208.542416,44.455372 208.732148,44.7678724 209.044649,44.8459975 C209.52456,44.946444 210.015632,45.0022476 210.506704,45.0022476 C214.100458,45.0022476 217.013408,42.0892977 217.013408,38.5067042 L217.013408,38.5067042 Z" id="tencent-weibo---FontAwesome" fill="#0D9DD4" sketch:type="MSShapeGroup"></path>
            <path d="M261.230469,37.3057554 C261.230469,37.8884892 260.84375,38.2769784 260.25293,38.2769784 C259.672852,38.2769784 259.082031,37.8884892 259.082031,37.3057554 C259.082031,36.7122302 259.672852,36.323741 260.25293,36.323741 C260.84375,36.323741 261.230469,36.7122302 261.230469,37.3057554 L261.230469,37.3057554 Z M269.211914,42.7769784 C269.211914,43.176259 268.825195,43.5647482 268.234375,43.5647482 C267.847656,43.5647482 267.460938,43.176259 267.460938,42.7769784 C267.460938,42.3884892 267.847656,42 268.234375,42 C268.825195,42 269.211914,42.3884892 269.211914,42.7769784 L269.211914,42.7769784 Z M266.676758,37.3057554 C266.676758,37.8884892 266.290039,38.2769784 265.709961,38.2769784 C265.119141,38.2769784 264.539062,37.8884892 264.539062,37.3057554 C264.539062,36.7122302 265.119141,36.323741 265.709961,36.323741 C266.290039,36.323741 266.676758,36.7122302 266.676758,37.3057554 L266.676758,37.3057554 Z M273.498047,42.7769784 C273.498047,43.176259 273.100586,43.5647482 272.520508,43.5647482 C272.133789,43.5647482 271.74707,43.176259 271.74707,42.7769784 C271.74707,42.3884892 272.133789,42 272.520508,42 C273.100586,42 273.498047,42.3884892 273.498047,42.7769784 L273.498047,42.7769784 Z M270.640625,38.4928058 C269.974609,35.3417266 266.612305,33 262.788086,33 C258.501953,33 255,35.9244604 255,39.647482 C255,41.794964 256.170898,43.5647482 258.115234,44.9352518 L257.341797,47.2877698 L260.05957,45.9172662 C261.037109,46.1115108 261.810547,46.3057554 262.788086,46.3057554 C263.035156,46.3057554 263.271484,46.294964 263.518555,46.2733813 C263.357422,45.7553957 263.271484,45.205036 263.271484,44.6330935 C263.271484,41.2230216 266.193359,38.4496403 269.888672,38.4496403 C270.146484,38.4496403 270.393555,38.4604317 270.640625,38.4928058 L270.640625,38.4928058 Z M277,44.5467626 C277,41.4172662 273.884766,38.8705036 270.382812,38.8705036 C266.676758,38.8705036 263.765625,41.4172662 263.765625,44.5467626 C263.765625,47.676259 266.676758,50.2230216 270.382812,50.2230216 C271.15625,50.2230216 271.94043,50.0179856 272.724609,49.823741 L274.862305,51 L274.271484,49.0467626 C275.839844,47.8705036 277,46.3057554 277,44.5467626 L277,44.5467626 Z" id="weixin---FontAwesome" fill="#00B500" sketch:type="MSShapeGroup"></path>
            <path d="M322,5 C317.03125,5 313,9.03125 313,14 C313,18.96875 317.03125,23 322,23 C326.96875,23 331,18.96875 331,14 C331,9.03125 326.96875,5 322,5 L322,5 Z M325.210938,11.1054688 C325.339844,11.0234375 325.550781,10.9179688 325.714844,10.9648438 C325.84375,11 325.949219,11.046875 325.796875,11.1523438 C325.726562,11.1992188 325.621094,11.1523438 325.539062,11.1757813 C325.644531,11.1992188 325.796875,11.2460938 325.75,11.3515625 C326.054688,11.5273438 325.65625,11.7382813 325.457031,11.7148438 C325.550781,11.7265625 325.257812,11.9023438 325.257812,11.890625 C325.152344,11.9492188 325.011719,11.9492188 324.929688,12.0546875 C324.835938,12.1835938 324.964844,12.40625 324.789062,12.359375 C324.71875,12.5117188 324.449219,12.4296875 324.332031,12.59375 C324.460938,12.734375 324.203125,12.9335938 324.074219,12.7578125 C323.957031,12.8046875 324.015625,12.9335938 323.898438,13.0039063 C323.945312,13.0742188 323.957031,13.1445312 323.875,13.1914062 C323.898438,13.1796875 324.039062,13.296875 324.074219,13.3085938 C324.050781,13.3671875 324.003906,13.4140625 323.945312,13.4140625 C324.003906,13.5664062 323.875,13.7304688 323.769531,13.8242188 C323.652344,13.9179688 323.382812,14.0117188 323.347656,14.0351562 C323.136719,14.234375 322.996094,14.5273438 323.371094,14.609375 C323.382812,14.609375 323.382812,14.9960938 323.394531,15.0078125 C323.417969,15.1484375 323.476562,15.5585938 323.230469,15.40625 C323.113281,15.3476562 323.042969,15.0195312 323.007812,14.890625 C322.972656,14.75 322.960938,14.75 322.867188,14.609375 C322.714844,14.7851562 322.691406,14.65625 322.5625,14.5742188 C322.433594,14.5039062 322.246094,14.5273438 322.175781,14.4570312 C322,14.5859375 321.871094,14.5507812 321.835938,14.3515625 C321.789062,14.4453125 321.882812,14.5859375 321.871094,14.6210938 C321.8125,14.7382812 321.707031,14.7148438 321.613281,14.6445312 C321.460938,14.5273438 321.132812,14.7265625 320.957031,14.6445312 C320.96875,14.6445312 321.015625,14.6914062 321.050781,14.7148438 C321.015625,14.8554688 320.933594,14.7734375 320.863281,14.8203125 C320.78125,14.8789062 320.710938,14.9960938 320.640625,15.0546875 C320.792969,15.3476562 320.628906,15.6289062 320.640625,15.9453125 C320.640625,16.1796875 320.792969,16.5898438 321.015625,16.71875 C321.121094,16.7773438 321.472656,16.8007812 321.578125,16.7539062 C321.742188,16.6835938 321.71875,16.5546875 321.777344,16.4140625 C321.835938,16.2617188 321.90625,16.1914062 322.082031,16.1796875 C322.585938,16.15625 322.199219,16.5664062 322.140625,16.7773438 C322.105469,16.9296875 322.09375,17.1054688 322.070312,17.2460938 C322.128906,17.2695312 322.1875,17.2578125 322.246094,17.2578125 C322.246094,17.2109375 322.28125,17.1523438 322.28125,17.1171875 C322.351562,17.234375 322.585938,17.2695312 322.65625,17.1289062 C322.738281,17.2695312 322.902344,17.375 322.925781,17.5390625 C322.949219,17.703125 323.101562,17.8789062 322.878906,17.8789062 C322.714844,17.8789062 322.902344,18.2070312 322.925781,18.265625 C323.054688,18.5 323.265625,18.59375 323.5,18.4765625 C323.5,18.5703125 323.464844,18.828125 323.335938,18.8515625 C323.21875,18.875 322.996094,18.6289062 323.042969,18.5 C323.03125,18.546875 322.996094,18.5820312 322.960938,18.6054688 C322.84375,18.4648438 322.644531,18.3945312 322.539062,18.2539062 C322.515625,18.21875 322.199219,17.7382812 322.269531,17.7148438 C322.105469,17.7851562 321.777344,17.6679688 321.625,17.5859375 C321.378906,17.4570312 321.34375,17.1171875 321.039062,17.1640625 C320.828125,17.1992188 320.769531,17.28125 320.523438,17.1875 C320.359375,17.1289062 320.21875,17.0117188 320.054688,16.9296875 C319.867188,16.8242188 319.539062,16.71875 319.46875,16.484375 C319.398438,16.296875 319.421875,16.0742188 319.316406,15.8984375 C319.246094,15.78125 319.035156,15.546875 318.882812,15.546875 C319.023438,15.546875 318.753906,15.1953125 318.71875,15.1601562 C318.589844,15.0078125 318.121094,14.5976562 318.214844,14.3632812 C318.238281,14.328125 317.980469,14.234375 317.933594,14.2226562 C317.980469,14.3398438 317.992188,14.46875 318.050781,14.5742188 C318.109375,14.6914062 318.179688,14.796875 318.25,14.9140625 C318.378906,15.125 318.554688,15.3828125 318.53125,15.640625 C318.378906,15.6875 318.425781,15.4648438 318.378906,15.3710938 C318.296875,15.21875 318.074219,15.21875 318.015625,15.0546875 C318.039062,15.0429688 318.050781,15.0429688 318.074219,15.03125 C318.085938,14.8320312 317.792969,14.6679688 317.839844,14.5273438 C317.675781,14.3984375 317.675781,14.1523438 317.558594,13.9882812 C317.453125,13.8359375 317.277344,13.765625 317.125,13.6601562 C317.066406,13.625 316.644531,13.0859375 316.796875,13.0507813 C316.5625,13.109375 316.445312,12.5585938 316.480469,12.4179688 C316.480469,12.4179688 316.457031,12.4179688 316.457031,12.40625 C316.503906,12.265625 316.421875,11.5390625 316.609375,11.5273438 C316.480469,11.5390625 316.445312,11.2226563 316.480469,11.1640625 C316.503906,11.1171875 316.679688,11.2929688 316.691406,11.3164063 C316.761719,11.28125 316.832031,11.1875 316.808594,11.1054688 C316.773438,11.0117188 316.644531,10.9296875 316.5625,10.859375 C316.527344,10.8359375 316.058594,10.53125 316.046875,10.5429688 C316.09375,10.4609375 316.082031,10.3789063 316.011719,10.3203125 C315.789062,10.4960938 315.90625,10.15625 315.789062,10.1210938 C315.742188,10.109375 315.695312,10.0742188 315.648438,10.0273438 C316.328125,8.94921875 317.277344,8.046875 318.402344,7.42578125 C318.472656,7.4140625 318.566406,7.4140625 318.660156,7.4140625 C318.871094,7.4375 318.988281,7.61328125 319.140625,7.71875 C319.164062,7.66015625 319.117188,7.56640625 319.082031,7.5078125 C319.117188,7.4140625 319.257812,7.390625 319.339844,7.3671875 C319.445312,7.35546875 319.597656,7.33203125 319.691406,7.37890625 C319.621094,7.2734375 319.539062,7.1796875 319.457031,7.0859375 C319.445312,7.09765625 319.410156,7.12109375 319.398438,7.14453125 C319.269531,7.0390625 319.023438,7.1796875 318.90625,7.2265625 C318.8125,7.2734375 318.730469,7.33203125 318.636719,7.3671875 C318.578125,7.390625 318.542969,7.390625 318.496094,7.37890625 C318.847656,7.19140625 319.210938,7.02734375 319.597656,6.8984375 C319.667969,6.9453125 319.738281,7.02734375 319.84375,7.109375 C319.773438,7.05078125 319.773438,7.3203125 319.796875,7.3671875 C319.925781,7.54296875 320.207031,7.42578125 320.382812,7.42578125 C320.371094,7.42578125 320.898438,7.49609375 320.792969,7.3671875 C320.875,7.484375 320.875,7.66015625 320.980469,7.765625 C321.085938,7.66015625 320.933594,7.54296875 321.003906,7.4375 C321.027344,7.390625 321.238281,7.33203125 321.308594,7.296875 C321.390625,7.23828125 321.25,7.15625 321.214844,7.1328125 C321.097656,7.0625 320.640625,7.02734375 320.863281,6.7578125 C320.945312,6.6640625 321.238281,6.7109375 321.332031,6.76953125 C321.460938,6.83984375 321.601562,6.96875 321.425781,7.0859375 C321.507812,7.09765625 321.894531,7.203125 321.835938,7.35546875 C321.871094,7.28515625 321.929688,7.1796875 322.023438,7.1796875 C322.128906,7.19140625 322.152344,7.4375 322.199219,7.49609375 C322.363281,7.7890625 322.644531,7.203125 322.691406,7.2265625 C322.480469,7.14453125 322.878906,7.0390625 322.984375,7.07421875 C323.066406,7.109375 323.195312,7.390625 323.042969,7.37890625 C323.171875,7.49609375 323.183594,7.75390625 322.949219,7.7421875 C322.785156,7.73046875 322.597656,7.5078125 322.445312,7.68359375 C322.339844,7.80078125 322.292969,7.9765625 322.1875,8.08203125 C322.023438,8.24609375 321.800781,8.234375 321.601562,8.2109375 C321.683594,8.22265625 321.425781,8.4921875 321.402344,8.5390625 C321.332031,8.62109375 321.285156,8.71484375 321.261719,8.80859375 C321.238281,8.92578125 321.261719,9.0546875 321.203125,9.171875 C321.402344,9.11328125 321.507812,9.4765625 321.425781,9.48828125 C321.671875,9.453125 321.871094,9.453125 322.105469,9.53515625 C322.269531,9.59375 322.515625,9.6640625 322.585938,9.83984375 C322.632812,9.76953125 322.855469,9.8046875 322.925781,9.828125 C323.066406,9.8984375 323.078125,10.0507813 323.113281,10.1796875 C323.160156,10.3554688 323.3125,10.6484375 323.511719,10.5546875 C323.546875,10.53125 323.804688,10.4140625 323.710938,10.34375 C323.617188,10.2617188 323.511719,10.0507813 323.605469,9.93359375 C323.699219,9.8046875 323.921875,9.76953125 323.980469,9.60546875 C324.074219,9.3359375 323.699219,9.37109375 323.699219,9.171875 C323.699219,9.0546875 323.851562,9.01953125 323.839844,8.87890625 C323.839844,8.76171875 323.664062,8.52734375 323.804688,8.4453125 C323.921875,8.375 324.484375,8.4921875 324.589844,8.5625 C324.695312,8.6328125 325.023438,8.7265625 325.046875,8.83203125 L324.988281,8.83203125 C325.082031,8.9140625 325.164062,9.08984375 325,9.13671875 C325.105469,9.11328125 325.410156,9.23046875 325.199219,9.30078125 C325.269531,9.265625 325.328125,9.2890625 325.398438,9.2421875 C325.480469,9.1953125 325.527344,9.11328125 325.632812,9.171875 C325.65625,9.18359375 325.785156,8.92578125 325.855469,8.9375 C325.960938,8.94921875 325.984375,9.1015625 326.03125,9.171875 C326.078125,9.27734375 326.207031,9.3125 326.253906,9.41796875 C326.335938,9.6171875 326.300781,9.8046875 326.570312,9.875 C326.652344,9.8984375 326.875,9.76953125 326.863281,9.9453125 C326.910156,9.8984375 326.933594,9.86328125 326.933594,9.8515625 C326.945312,10.015625 327.015625,10.203125 327.214844,10.1796875 C327.214844,10.1796875 327.214844,10.4023438 327.191406,10.4375 C327.121094,10.5429688 326.945312,10.5195313 326.839844,10.578125 C326.804688,10.5898438 326.523438,10.8359375 326.558594,10.8710938 C326.40625,10.6953125 326.160156,10.6953125 325.960938,10.7421875 C325.75,10.7773438 325.550781,10.8007813 325.351562,10.8828125 C325.257812,10.9296875 325.164062,10.9765625 325.09375,11.0585938 C325.058594,11.1054688 325,11.3164063 324.941406,11.328125 C325.058594,11.3046875 325.117188,11.1757813 325.210938,11.1054688 L325.210938,11.1054688 Z M323.300781,21.3828125 C323.289062,21.3242188 323.277344,21.2070312 323.277344,21.1953125 C323.265625,21.0078125 323.464844,20.8789062 323.453125,20.703125 C323.324219,20.6679688 323.289062,20.5390625 323.3125,20.3984375 C323.335938,20.1992188 323.511719,20.0585938 323.652344,19.9296875 C323.792969,19.8007812 323.828125,19.53125 323.792969,19.3671875 C323.734375,19.0859375 323.734375,18.7929688 323.6875,18.5117188 C323.699219,18.5820312 323.898438,18.5585938 323.933594,18.6523438 C323.980469,18.5703125 324.003906,18.4648438 324.0625,18.3828125 C324.109375,18.3125 324.191406,18.2890625 324.261719,18.2304688 C324.378906,18.1601562 324.625,17.890625 324.765625,18.0546875 C324.882812,18.1953125 324.589844,18.3476562 324.742188,18.4765625 C324.789062,18.3828125 324.742188,18.2421875 324.835938,18.1484375 C325.023438,17.9375 325.152344,18.171875 325.339844,18.2304688 C325.539062,18.2890625 325.609375,18.359375 325.761719,18.4882812 C325.714844,18.4414062 325.949219,18.359375 325.972656,18.3476562 C326.195312,18.3007812 326.289062,18.4296875 326.441406,18.546875 C326.605469,18.6640625 326.863281,18.7460938 326.839844,18.9804688 C326.957031,19.0039062 327.027344,19.0390625 327.121094,19.0742188 C327.214844,19.1210938 327.34375,19.0976562 327.414062,19.1679688 C326.335938,20.3046875 324.90625,21.1015625 323.300781,21.3828125 L323.300781,21.3828125 Z" id="globe---FontAwesome" fill="#FFFFFF" sketch:type="MSShapeGroup"></path>
            <path d="M322,33 C317.03125,33 313,37.03125 313,42 C313,46.96875 317.03125,51 322,51 C326.96875,51 331,46.96875 331,42 C331,37.03125 326.96875,33 322,33 L322,33 Z M325.210938,39.1054688 C325.339844,39.0234375 325.550781,38.9179688 325.714844,38.9648438 C325.84375,39 325.949219,39.046875 325.796875,39.1523438 C325.726562,39.1992188 325.621094,39.1523438 325.539062,39.1757812 C325.644531,39.1992188 325.796875,39.2460938 325.75,39.3515625 C326.054688,39.5273438 325.65625,39.7382812 325.457031,39.7148438 C325.550781,39.7265625 325.257812,39.9023438 325.257812,39.890625 C325.152344,39.9492188 325.011719,39.9492188 324.929688,40.0546875 C324.835938,40.1835938 324.964844,40.40625 324.789062,40.359375 C324.71875,40.5117188 324.449219,40.4296875 324.332031,40.59375 C324.460938,40.734375 324.203125,40.9335938 324.074219,40.7578125 C323.957031,40.8046875 324.015625,40.9335938 323.898438,41.0039062 C323.945312,41.0742188 323.957031,41.1445312 323.875,41.1914062 C323.898438,41.1796875 324.039062,41.296875 324.074219,41.3085938 C324.050781,41.3671875 324.003906,41.4140625 323.945312,41.4140625 C324.003906,41.5664062 323.875,41.7304688 323.769531,41.8242188 C323.652344,41.9179688 323.382812,42.0117188 323.347656,42.0351562 C323.136719,42.234375 322.996094,42.5273438 323.371094,42.609375 C323.382812,42.609375 323.382812,42.9960938 323.394531,43.0078125 C323.417969,43.1484375 323.476562,43.5585938 323.230469,43.40625 C323.113281,43.3476562 323.042969,43.0195312 323.007812,42.890625 C322.972656,42.75 322.960938,42.75 322.867188,42.609375 C322.714844,42.7851562 322.691406,42.65625 322.5625,42.5742188 C322.433594,42.5039062 322.246094,42.5273438 322.175781,42.4570312 C322,42.5859375 321.871094,42.5507812 321.835938,42.3515625 C321.789062,42.4453125 321.882812,42.5859375 321.871094,42.6210938 C321.8125,42.7382812 321.707031,42.7148438 321.613281,42.6445312 C321.460938,42.5273438 321.132812,42.7265625 320.957031,42.6445312 C320.96875,42.6445312 321.015625,42.6914062 321.050781,42.7148438 C321.015625,42.8554688 320.933594,42.7734375 320.863281,42.8203125 C320.78125,42.8789062 320.710938,42.9960938 320.640625,43.0546875 C320.792969,43.3476562 320.628906,43.6289062 320.640625,43.9453125 C320.640625,44.1796875 320.792969,44.5898438 321.015625,44.71875 C321.121094,44.7773438 321.472656,44.8007812 321.578125,44.7539062 C321.742188,44.6835938 321.71875,44.5546875 321.777344,44.4140625 C321.835938,44.2617188 321.90625,44.1914062 322.082031,44.1796875 C322.585938,44.15625 322.199219,44.5664062 322.140625,44.7773438 C322.105469,44.9296875 322.09375,45.1054688 322.070312,45.2460938 C322.128906,45.2695312 322.1875,45.2578125 322.246094,45.2578125 C322.246094,45.2109375 322.28125,45.1523438 322.28125,45.1171875 C322.351562,45.234375 322.585938,45.2695312 322.65625,45.1289062 C322.738281,45.2695312 322.902344,45.375 322.925781,45.5390625 C322.949219,45.703125 323.101562,45.8789062 322.878906,45.8789062 C322.714844,45.8789062 322.902344,46.2070312 322.925781,46.265625 C323.054688,46.5 323.265625,46.59375 323.5,46.4765625 C323.5,46.5703125 323.464844,46.828125 323.335938,46.8515625 C323.21875,46.875 322.996094,46.6289062 323.042969,46.5 C323.03125,46.546875 322.996094,46.5820312 322.960938,46.6054688 C322.84375,46.4648438 322.644531,46.3945312 322.539062,46.2539062 C322.515625,46.21875 322.199219,45.7382812 322.269531,45.7148438 C322.105469,45.7851562 321.777344,45.6679688 321.625,45.5859375 C321.378906,45.4570312 321.34375,45.1171875 321.039062,45.1640625 C320.828125,45.1992188 320.769531,45.28125 320.523438,45.1875 C320.359375,45.1289062 320.21875,45.0117188 320.054688,44.9296875 C319.867188,44.8242188 319.539062,44.71875 319.46875,44.484375 C319.398438,44.296875 319.421875,44.0742188 319.316406,43.8984375 C319.246094,43.78125 319.035156,43.546875 318.882812,43.546875 C319.023438,43.546875 318.753906,43.1953125 318.71875,43.1601562 C318.589844,43.0078125 318.121094,42.5976562 318.214844,42.3632812 C318.238281,42.328125 317.980469,42.234375 317.933594,42.2226562 C317.980469,42.3398438 317.992188,42.46875 318.050781,42.5742188 C318.109375,42.6914062 318.179688,42.796875 318.25,42.9140625 C318.378906,43.125 318.554688,43.3828125 318.53125,43.640625 C318.378906,43.6875 318.425781,43.4648438 318.378906,43.3710938 C318.296875,43.21875 318.074219,43.21875 318.015625,43.0546875 C318.039062,43.0429688 318.050781,43.0429688 318.074219,43.03125 C318.085938,42.8320312 317.792969,42.6679688 317.839844,42.5273438 C317.675781,42.3984375 317.675781,42.1523438 317.558594,41.9882812 C317.453125,41.8359375 317.277344,41.765625 317.125,41.6601562 C317.066406,41.625 316.644531,41.0859375 316.796875,41.0507812 C316.5625,41.109375 316.445312,40.5585938 316.480469,40.4179688 C316.480469,40.4179688 316.457031,40.4179688 316.457031,40.40625 C316.503906,40.265625 316.421875,39.5390625 316.609375,39.5273438 C316.480469,39.5390625 316.445312,39.2226562 316.480469,39.1640625 C316.503906,39.1171875 316.679688,39.2929688 316.691406,39.3164062 C316.761719,39.28125 316.832031,39.1875 316.808594,39.1054688 C316.773438,39.0117188 316.644531,38.9296875 316.5625,38.859375 C316.527344,38.8359375 316.058594,38.53125 316.046875,38.5429688 C316.09375,38.4609375 316.082031,38.3789062 316.011719,38.3203125 C315.789062,38.4960938 315.90625,38.15625 315.789062,38.1210938 C315.742188,38.109375 315.695312,38.0742188 315.648438,38.0273438 C316.328125,36.9492188 317.277344,36.046875 318.402344,35.4257812 C318.472656,35.4140625 318.566406,35.4140625 318.660156,35.4140625 C318.871094,35.4375 318.988281,35.6132812 319.140625,35.71875 C319.164062,35.6601562 319.117188,35.5664062 319.082031,35.5078125 C319.117188,35.4140625 319.257812,35.390625 319.339844,35.3671875 C319.445312,35.3554688 319.597656,35.3320312 319.691406,35.3789062 C319.621094,35.2734375 319.539062,35.1796875 319.457031,35.0859375 C319.445312,35.0976562 319.410156,35.1210938 319.398438,35.1445312 C319.269531,35.0390625 319.023438,35.1796875 318.90625,35.2265625 C318.8125,35.2734375 318.730469,35.3320312 318.636719,35.3671875 C318.578125,35.390625 318.542969,35.390625 318.496094,35.3789062 C318.847656,35.1914062 319.210938,35.0273438 319.597656,34.8984375 C319.667969,34.9453125 319.738281,35.0273438 319.84375,35.109375 C319.773438,35.0507812 319.773438,35.3203125 319.796875,35.3671875 C319.925781,35.5429688 320.207031,35.4257812 320.382812,35.4257812 C320.371094,35.4257812 320.898438,35.4960938 320.792969,35.3671875 C320.875,35.484375 320.875,35.6601562 320.980469,35.765625 C321.085938,35.6601562 320.933594,35.5429688 321.003906,35.4375 C321.027344,35.390625 321.238281,35.3320312 321.308594,35.296875 C321.390625,35.2382812 321.25,35.15625 321.214844,35.1328125 C321.097656,35.0625 320.640625,35.0273438 320.863281,34.7578125 C320.945312,34.6640625 321.238281,34.7109375 321.332031,34.7695312 C321.460938,34.8398438 321.601562,34.96875 321.425781,35.0859375 C321.507812,35.0976562 321.894531,35.203125 321.835938,35.3554688 C321.871094,35.2851562 321.929688,35.1796875 322.023438,35.1796875 C322.128906,35.1914062 322.152344,35.4375 322.199219,35.4960938 C322.363281,35.7890625 322.644531,35.203125 322.691406,35.2265625 C322.480469,35.1445312 322.878906,35.0390625 322.984375,35.0742188 C323.066406,35.109375 323.195312,35.390625 323.042969,35.3789062 C323.171875,35.4960938 323.183594,35.7539062 322.949219,35.7421875 C322.785156,35.7304688 322.597656,35.5078125 322.445312,35.6835938 C322.339844,35.8007812 322.292969,35.9765625 322.1875,36.0820312 C322.023438,36.2460938 321.800781,36.234375 321.601562,36.2109375 C321.683594,36.2226562 321.425781,36.4921875 321.402344,36.5390625 C321.332031,36.6210938 321.285156,36.7148438 321.261719,36.8085938 C321.238281,36.9257812 321.261719,37.0546875 321.203125,37.171875 C321.402344,37.1132812 321.507812,37.4765625 321.425781,37.4882812 C321.671875,37.453125 321.871094,37.453125 322.105469,37.5351562 C322.269531,37.59375 322.515625,37.6640625 322.585938,37.8398438 C322.632812,37.7695312 322.855469,37.8046875 322.925781,37.828125 C323.066406,37.8984375 323.078125,38.0507812 323.113281,38.1796875 C323.160156,38.3554688 323.3125,38.6484375 323.511719,38.5546875 C323.546875,38.53125 323.804688,38.4140625 323.710938,38.34375 C323.617188,38.2617188 323.511719,38.0507812 323.605469,37.9335938 C323.699219,37.8046875 323.921875,37.7695312 323.980469,37.6054688 C324.074219,37.3359375 323.699219,37.3710938 323.699219,37.171875 C323.699219,37.0546875 323.851562,37.0195312 323.839844,36.8789062 C323.839844,36.7617188 323.664062,36.5273438 323.804688,36.4453125 C323.921875,36.375 324.484375,36.4921875 324.589844,36.5625 C324.695312,36.6328125 325.023438,36.7265625 325.046875,36.8320312 L324.988281,36.8320312 C325.082031,36.9140625 325.164062,37.0898438 325,37.1367188 C325.105469,37.1132812 325.410156,37.2304688 325.199219,37.3007812 C325.269531,37.265625 325.328125,37.2890625 325.398438,37.2421875 C325.480469,37.1953125 325.527344,37.1132812 325.632812,37.171875 C325.65625,37.1835938 325.785156,36.9257812 325.855469,36.9375 C325.960938,36.9492188 325.984375,37.1015625 326.03125,37.171875 C326.078125,37.2773438 326.207031,37.3125 326.253906,37.4179688 C326.335938,37.6171875 326.300781,37.8046875 326.570312,37.875 C326.652344,37.8984375 326.875,37.7695312 326.863281,37.9453125 C326.910156,37.8984375 326.933594,37.8632812 326.933594,37.8515625 C326.945312,38.015625 327.015625,38.203125 327.214844,38.1796875 C327.214844,38.1796875 327.214844,38.4023438 327.191406,38.4375 C327.121094,38.5429688 326.945312,38.5195312 326.839844,38.578125 C326.804688,38.5898438 326.523438,38.8359375 326.558594,38.8710938 C326.40625,38.6953125 326.160156,38.6953125 325.960938,38.7421875 C325.75,38.7773438 325.550781,38.8007812 325.351562,38.8828125 C325.257812,38.9296875 325.164062,38.9765625 325.09375,39.0585938 C325.058594,39.1054688 325,39.3164062 324.941406,39.328125 C325.058594,39.3046875 325.117188,39.1757812 325.210938,39.1054688 L325.210938,39.1054688 Z M323.300781,49.3828125 C323.289062,49.3242188 323.277344,49.2070312 323.277344,49.1953125 C323.265625,49.0078125 323.464844,48.8789062 323.453125,48.703125 C323.324219,48.6679688 323.289062,48.5390625 323.3125,48.3984375 C323.335938,48.1992188 323.511719,48.0585938 323.652344,47.9296875 C323.792969,47.8007812 323.828125,47.53125 323.792969,47.3671875 C323.734375,47.0859375 323.734375,46.7929688 323.6875,46.5117188 C323.699219,46.5820312 323.898438,46.5585938 323.933594,46.6523438 C323.980469,46.5703125 324.003906,46.4648438 324.0625,46.3828125 C324.109375,46.3125 324.191406,46.2890625 324.261719,46.2304688 C324.378906,46.1601562 324.625,45.890625 324.765625,46.0546875 C324.882812,46.1953125 324.589844,46.3476562 324.742188,46.4765625 C324.789062,46.3828125 324.742188,46.2421875 324.835938,46.1484375 C325.023438,45.9375 325.152344,46.171875 325.339844,46.2304688 C325.539062,46.2890625 325.609375,46.359375 325.761719,46.4882812 C325.714844,46.4414062 325.949219,46.359375 325.972656,46.3476562 C326.195312,46.3007812 326.289062,46.4296875 326.441406,46.546875 C326.605469,46.6640625 326.863281,46.7460938 326.839844,46.9804688 C326.957031,47.0039062 327.027344,47.0390625 327.121094,47.0742188 C327.214844,47.1210938 327.34375,47.0976562 327.414062,47.1679688 C326.335938,48.3046875 324.90625,49.1015625 323.300781,49.3828125 L323.300781,49.3828125 Z" id="globe---FontAwesome-Copy" fill="#4A90E2" sketch:type="MSShapeGroup"></path>
        </g>
    </g>
</svg>